<svg width="296" height="60" viewBox="0 0 296 60" fill="none" xmlns="http://www.w3.org/2000/svg">
<path d="M7.57169 12.7681C6.30924 11.6951 4.41596 11.8486 3.34293 13.1111C2.26989 14.3735 2.42344 16.2668 3.68588 17.3398L7.57169 12.7681ZM293.721 26.2141C295.244 25.5613 295.949 23.7976 295.296 22.2748C294.643 20.7519 292.88 20.0467 291.357 20.6995L293.721 26.2141ZM19.5998 55.877C20.3995 57.3281 22.2241 57.8562 23.6752 57.0566C25.1263 56.2569 25.6544 54.4323 24.8547 52.9812L19.5998 55.877ZM3.26176 13.9379L0.839958 12.1674L0.839671 12.1678L3.26176 13.9379ZM39.6218 6.14963C41.2678 5.96074 42.4491 4.47323 42.2602 2.82718C42.0713 1.18113 40.5838 -0.000138874 38.9378 0.188748L39.6218 6.14963ZM5.62878 15.054C3.68588 17.3398 3.68776 17.3414 3.69003 17.3434C3.69131 17.3445 3.69398 17.3467 3.69654 17.3489C3.70167 17.3532 3.70838 17.3589 3.71665 17.3658C3.73321 17.3798 3.75605 17.3989 3.78518 17.4231C3.84343 17.4716 3.92682 17.5405 4.03525 17.6287C4.25211 17.8053 4.56919 18.0595 4.98583 18.3836C5.81909 19.0318 7.05076 19.9597 8.67567 21.105C11.9253 23.3956 16.749 26.5569 23.1053 30.0904C35.8176 37.1572 54.6658 45.7161 79.3131 51.7724C128.654 63.8962 201.048 65.9427 293.721 26.2141L291.357 20.6995C199.883 59.9138 128.822 57.759 80.7448 45.9457C56.6828 40.0333 38.331 31.6897 26.0205 24.8462C19.8654 21.4245 15.2221 18.3787 12.1325 16.2009C10.5878 15.1121 9.4318 14.2405 8.66982 13.6477C8.28884 13.3514 8.0064 13.1247 7.82314 12.9756C7.73152 12.901 7.6647 12.8458 7.62276 12.8109C7.60179 12.7934 7.58704 12.7811 7.57852 12.7739C7.57427 12.7703 7.57157 12.768 7.57043 12.7671C7.56986 12.7666 7.57017 12.7669 7.56989 12.7666C7.57059 12.7672 7.57169 12.7681 5.62878 15.054ZM22.2273 54.4291C24.8547 52.9812 24.8547 52.9811 24.8546 52.9809C24.8545 52.9807 24.8543 52.9803 24.854 52.9798C24.8534 52.9788 24.8525 52.9772 24.8513 52.975C24.8489 52.9706 24.8453 52.964 24.8404 52.9551C24.8306 52.9374 24.816 52.9107 24.7965 52.8753C24.7576 52.8046 24.6997 52.6991 24.6241 52.5611C24.4728 52.2851 24.2507 51.8792 23.9685 51.3612C23.404 50.325 22.5992 48.8409 21.6391 47.0513C19.718 43.4704 17.1795 38.6749 14.7031 33.8033C12.2207 28.92 9.82507 24.0082 8.17504 20.1791C7.34476 18.2524 6.73921 16.6819 6.40072 15.5606C6.22804 14.9886 6.15931 14.6443 6.14087 14.4828C6.13166 14.4021 6.1468 14.463 6.12989 14.6152C6.11638 14.7368 6.05377 15.202 5.68384 15.7081L0.839671 12.1678C0.35046 12.8371 0.213065 13.5344 0.166601 13.9525C0.116734 14.4012 0.140755 14.8231 0.179591 15.1633C0.257249 15.8435 0.441285 16.5808 0.656736 17.2945C1.09448 18.7446 1.80661 20.5619 2.66488 22.5536C4.39196 26.5615 6.857 31.6092 9.35453 36.5223C11.858 41.4471 14.4188 46.2847 16.352 49.8879C17.319 51.6903 18.13 53.1859 18.6996 54.2315C18.9845 54.7544 19.209 55.1648 19.3626 55.445C19.4394 55.5851 19.4984 55.6926 19.5384 55.7654C19.5584 55.8017 19.5736 55.8294 19.5839 55.8481C19.5891 55.8575 19.593 55.8646 19.5956 55.8694C19.597 55.8718 19.598 55.8736 19.5987 55.8749C19.599 55.8755 19.5993 55.8761 19.5995 55.8764C19.5997 55.8768 19.5998 55.877 22.2273 54.4291ZM5.68355 15.7085C5.43995 16.0417 5.2438 16.109 5.5054 15.9488C5.68772 15.8372 5.99053 15.6771 6.44029 15.4727C7.3341 15.0663 8.58636 14.5838 10.131 14.0476C13.2066 12.9799 17.2144 11.7768 21.3275 10.6295C25.432 9.48446 29.5991 8.40661 32.9765 7.58864C36.4464 6.74825 38.8672 6.23623 39.6218 6.14963L38.9378 0.188748C37.7358 0.326676 34.9153 0.945613 31.5642 1.75723C28.1205 2.59126 23.8867 3.68644 19.7153 4.85011C15.5524 6.01139 11.409 7.25265 8.16324 8.37944C6.54711 8.94049 5.09605 9.49282 3.95705 10.0107C3.39041 10.2683 2.84444 10.5427 2.37224 10.8318C1.97932 11.0724 1.32292 11.5068 0.839958 12.1674L5.68355 15.7085Z" fill="#9E77ED"/>
</svg>
